<svg width="1920" height="1080" viewBox="0 0 1920 1080" fill="none" xmlns="http://www.w3.org/2000/svg">
<g clip-path="url(#clip0_2_45)">
<rect width="1920" height="1080" fill="#FE0130"/>
<path d="M815.273 867.121C765.099 844.783 724.039 806.009 698.864 757.197C673.69 708.384 665.905 652.449 676.795 598.617L913.5 646.5L815.273 867.121Z" fill="#80F0FF"/>
<path d="M686.892 592.501C694.68 551.391 713.904 513.301 742.365 482.583C770.826 451.866 807.377 429.76 847.84 418.793L906.5 634L686.892 592.501Z" fill="#90FF54"/>
<path d="M869.001 381.21C909.841 372.529 952.155 373.637 992.485 384.443C1032.81 395.249 1070.01 415.447 1101.04 443.385C1132.07 471.322 1156.05 506.207 1171.01 545.186C1185.97 584.165 1191.5 626.132 1187.13 667.655C1182.77 709.179 1168.64 749.08 1145.9 784.096C1123.16 819.113 1092.45 848.25 1056.29 869.126C1020.14 890.002 979.55 902.024 937.855 904.209C896.16 906.395 854.54 898.681 816.397 881.699L924.008 640L869.001 381.21Z" fill="#FFE553"/>
<path d="M853.128 402.879C856.306 402.022 859.501 401.234 862.713 400.516L912.423 622.747L853.128 402.879Z" fill="white"/>
<circle cx="923.857" cy="640.566" r="91.089" transform="rotate(-30 923.857 640.566)" fill="#FE0130"/>
<path d="M902.669 660.854L935.808 617.893H944.967L911.827 660.854H902.669ZM904.717 639.343C901.183 639.343 898.431 638.379 896.463 636.451C894.535 634.483 893.57 631.872 893.57 628.618C893.57 625.364 894.535 622.773 896.463 620.845C898.431 618.877 901.183 617.893 904.717 617.893H908.513C912.048 617.893 914.78 618.877 916.708 620.845C918.676 622.773 919.66 625.364 919.66 628.618C919.66 631.872 918.676 634.483 916.708 636.451C914.78 638.379 912.048 639.343 908.513 639.343H904.717ZM905.923 633.559H907.308C908.875 633.559 910.04 633.137 910.803 632.293C911.606 631.41 912.008 630.184 912.008 628.618C912.008 627.051 911.606 625.846 910.803 625.003C910.04 624.119 908.875 623.677 907.308 623.677H905.923C904.356 623.677 903.171 624.119 902.368 625.003C901.604 625.846 901.223 627.051 901.223 628.618C901.223 630.184 901.604 631.41 902.368 632.293C903.171 633.137 904.356 633.559 905.923 633.559ZM938.58 660.854C935.045 660.854 932.294 659.89 930.325 657.961C928.397 655.993 927.433 653.382 927.433 650.128C927.433 646.875 928.397 644.284 930.325 642.356C932.294 640.387 935.045 639.403 938.58 639.403H942.376C945.911 639.403 948.642 640.387 950.571 642.356C952.539 644.284 953.523 646.875 953.523 650.128C953.523 653.382 952.539 655.993 950.571 657.961C948.642 659.89 945.911 660.854 942.376 660.854H938.58ZM939.785 655.069H941.171C942.738 655.069 943.903 654.647 944.666 653.804C945.469 652.92 945.871 651.695 945.871 650.128C945.871 648.562 945.469 647.357 944.666 646.513C943.903 645.63 942.738 645.188 941.171 645.188H939.785C938.219 645.188 937.034 645.63 936.23 646.513C935.467 647.357 935.085 648.562 935.085 650.128C935.085 651.695 935.467 652.92 936.23 653.804C937.034 654.647 938.219 655.069 939.785 655.069Z" fill="white"/>
<path d="M524.717 533.685C524.717 539.059 529.074 543.416 534.449 543.416C539.823 543.416 544.18 539.059 544.18 533.685C544.18 528.31 539.823 523.953 534.449 523.953C529.074 523.953 524.717 528.31 524.717 533.685ZM656.699 531.86L534.449 531.86L534.449 535.509L656.699 535.509L656.699 531.86Z" fill="white"/>
<path d="M804.209 336.482L805.499 335.192L804.965 334.658L804.209 334.658L804.209 336.482ZM687.665 336.482C687.665 341.857 692.022 346.214 697.397 346.214C702.771 346.214 707.128 341.857 707.128 336.482C707.128 331.108 702.771 326.751 697.397 326.751C692.022 326.751 687.665 331.108 687.665 336.482ZM804.209 334.658L697.397 334.658L697.397 338.307L804.209 338.307L804.209 334.658ZM802.919 337.772L845.341 380.195L847.922 377.615L805.499 335.192L802.919 337.772Z" fill="white"/>
<path d="M640.526 829.59L641.733 830.958L641.216 831.415L640.526 831.415L640.526 829.59ZM563.983 829.59C563.983 824.215 568.339 819.859 573.714 819.859C579.088 819.859 583.445 824.215 583.445 829.59C583.445 834.964 579.088 839.321 573.714 839.321C568.339 839.321 563.983 834.964 563.983 829.59ZM640.526 831.415L573.714 831.415L573.714 827.765L640.526 827.765L640.526 831.415ZM639.319 828.222L681.742 790.799L684.156 793.536L641.733 830.958L639.319 828.222Z" fill="white"/>
<path d="M319.713 523.367V505.877H313.353V501.977H324.363V523.367H319.713ZM331.541 523.367L346.061 505.877H327.521V501.977H351.821V505.907L337.331 523.367H331.541ZM350.771 523.367V519.077H355.571V523.367H350.771ZM366.108 523.367C364.048 523.367 362.438 522.787 361.278 521.627C360.118 520.467 359.538 518.937 359.538 517.037C359.538 515.037 360.148 513.447 361.368 512.267C360.548 511.207 360.138 509.857 360.138 508.217C360.138 506.317 360.718 504.797 361.878 503.657C363.038 502.517 364.648 501.947 366.708 501.947H378.528C380.608 501.947 382.218 502.517 383.358 503.657C384.518 504.797 385.098 506.317 385.098 508.217C385.098 509.857 384.688 511.207 383.868 512.267C385.088 513.427 385.698 515.017 385.698 517.037C385.698 518.937 385.118 520.467 383.958 521.627C382.818 522.787 381.208 523.367 379.128 523.367H366.108ZM367.638 510.587H377.598C379.178 510.587 379.968 509.787 379.968 508.187C379.968 506.667 379.178 505.907 377.598 505.907H367.638C366.058 505.907 365.268 506.667 365.268 508.187C365.268 509.787 366.058 510.587 367.638 510.587ZM367.038 519.437H378.198C379.778 519.437 380.568 518.627 380.568 517.007C380.568 515.367 379.778 514.547 378.198 514.547H367.038C365.478 514.547 364.698 515.367 364.698 517.007C364.698 518.627 365.478 519.437 367.038 519.437ZM401.23 523.517C397.37 523.517 394.36 522.607 392.2 520.787C390.06 518.947 388.99 516.227 388.99 512.627C388.99 509.047 390.06 506.347 392.2 504.527C394.36 502.687 397.37 501.767 401.23 501.767H405.13C409.01 501.767 412.02 502.687 414.16 504.527C416.3 506.347 417.37 509.047 417.37 512.627C417.37 516.227 416.3 518.947 414.16 520.787C412.02 522.607 409.01 523.517 405.13 523.517H401.23ZM393.88 512.627C393.88 514.807 394.41 516.467 395.47 517.607L407.23 505.877C406.51 505.737 405.7 505.667 404.8 505.667H401.56C399.04 505.667 397.13 506.217 395.83 507.317C394.53 508.417 393.88 510.187 393.88 512.627ZM401.56 519.617H404.8C407.32 519.617 409.23 519.067 410.53 517.967C411.83 516.847 412.48 515.067 412.48 512.627C412.48 510.447 411.94 508.787 410.86 507.647L399.07 519.407C399.81 519.547 400.64 519.617 401.56 519.617ZM424.011 523.367L440.511 501.977H445.071L428.571 523.367H424.011ZM425.031 512.657C423.271 512.657 421.901 512.177 420.921 511.217C419.961 510.237 419.481 508.937 419.481 507.317C419.481 505.697 419.961 504.407 420.921 503.447C421.901 502.467 423.271 501.977 425.031 501.977H426.921C428.681 501.977 430.041 502.467 431.001 503.447C431.981 504.407 432.471 505.697 432.471 507.317C432.471 508.937 431.981 510.237 431.001 511.217C430.041 512.177 428.681 512.657 426.921 512.657H425.031ZM425.631 509.777H426.321C427.101 509.777 427.681 509.567 428.061 509.147C428.461 508.707 428.661 508.097 428.661 507.317C428.661 506.537 428.461 505.937 428.061 505.517C427.681 505.077 427.101 504.857 426.321 504.857H425.631C424.851 504.857 424.261 505.077 423.861 505.517C423.481 505.937 423.291 506.537 423.291 507.317C423.291 508.097 423.481 508.707 423.861 509.147C424.261 509.567 424.851 509.777 425.631 509.777ZM441.891 523.367C440.131 523.367 438.761 522.887 437.781 521.927C436.821 520.947 436.341 519.647 436.341 518.027C436.341 516.407 436.821 515.117 437.781 514.157C438.761 513.177 440.131 512.687 441.891 512.687H443.781C445.541 512.687 446.901 513.177 447.861 514.157C448.841 515.117 449.331 516.407 449.331 518.027C449.331 519.647 448.841 520.947 447.861 521.927C446.901 522.887 445.541 523.367 443.781 523.367H441.891ZM442.491 520.487H443.181C443.961 520.487 444.541 520.277 444.921 519.857C445.321 519.417 445.521 518.807 445.521 518.027C445.521 517.247 445.321 516.647 444.921 516.227C444.541 515.787 443.961 515.567 443.181 515.567H442.491C441.711 515.567 441.121 515.787 440.721 516.227C440.341 516.647 440.151 517.247 440.151 518.027C440.151 518.807 440.341 519.417 440.721 519.857C441.121 520.277 441.711 520.487 442.491 520.487ZM293.532 559.367V537.917H298.332V559.367H293.532ZM302.077 559.367V543.917H315.547C317.307 543.917 318.587 544.357 319.387 545.237C320.207 546.097 320.617 547.237 320.617 548.657V559.367H316.267V549.167C316.267 547.967 315.667 547.367 314.467 547.367H306.427V559.367H302.077ZM328.916 559.367L322.406 543.917H326.966L332.006 555.887H333.506L338.546 543.917H343.106L336.596 559.367H328.916ZM352.682 559.517C350.002 559.517 347.912 558.857 346.412 557.537C344.912 556.197 344.162 554.237 344.162 551.657C344.162 549.057 344.912 547.097 346.412 545.777C347.912 544.437 350.002 543.767 352.682 543.767H360.182C361.942 543.767 363.282 544.187 364.202 545.027C365.142 545.847 365.612 547.027 365.612 548.567C365.612 551.707 363.802 553.277 360.182 553.277H348.842C349.262 555.137 350.542 556.067 352.682 556.067H364.832V559.517H352.682ZM352.682 547.217C350.622 547.217 349.352 548.087 348.872 549.827H359.972C360.372 549.827 360.682 549.707 360.902 549.467C361.142 549.227 361.262 548.897 361.262 548.477C361.262 547.637 360.832 547.217 359.972 547.217H352.682ZM367.807 559.517V556.067H382.507C383.347 556.067 383.767 555.597 383.767 554.657C383.767 553.737 383.347 553.277 382.507 553.277H372.997C371.217 553.277 369.867 552.877 368.947 552.077C368.027 551.257 367.567 550.087 367.567 548.567C367.567 547.027 368.027 545.847 368.947 545.027C369.887 544.187 371.237 543.767 372.997 543.767H386.677V547.217H373.207C372.347 547.217 371.917 547.637 371.917 548.477C371.917 548.897 372.037 549.227 372.277 549.467C372.517 549.707 372.827 549.827 373.207 549.827H383.287C384.847 549.827 386.037 550.237 386.857 551.057C387.697 551.857 388.117 553.027 388.117 554.567C388.117 556.127 387.697 557.347 386.857 558.227C386.017 559.087 384.827 559.517 383.287 559.517H367.807ZM398.71 559.367C396.97 559.367 395.69 558.937 394.87 558.077C394.05 557.197 393.64 556.047 393.64 554.627V547.367H389.17V543.917H393.64V539.177H397.99V543.917H404.41V547.367H397.99V554.087C397.99 555.307 398.59 555.917 399.79 555.917H405.25V559.367H398.71ZM415.407 559.517C412.727 559.517 410.637 558.857 409.137 557.537C407.637 556.197 406.887 554.237 406.887 551.657C406.887 549.057 407.637 547.097 409.137 545.777C410.637 544.437 412.727 543.767 415.407 543.767H420.957C423.637 543.767 425.727 544.437 427.227 545.777C428.727 547.097 429.477 549.057 429.477 551.657C429.477 554.237 428.727 556.197 427.227 557.537C425.727 558.857 423.637 559.517 420.957 559.517H415.407ZM415.407 556.067H420.957C422.257 556.067 423.247 555.707 423.927 554.987C424.627 554.267 424.977 553.157 424.977 551.657C424.977 550.137 424.627 549.017 423.927 548.297C423.247 547.577 422.257 547.217 420.957 547.217H415.407C414.107 547.217 413.107 547.577 412.407 548.297C411.727 549.017 411.387 550.137 411.387 551.657C411.387 553.157 411.727 554.267 412.407 554.987C413.107 555.707 414.107 556.067 415.407 556.067ZM432.184 559.367V543.917H444.004C445.744 543.917 447.024 544.357 447.844 545.237C448.664 546.097 449.074 547.237 449.074 548.657V551.867H444.664V549.197C444.664 547.997 444.064 547.397 442.864 547.397H436.594V559.367H432.184ZM450.951 559.517V556.067H465.651C466.491 556.067 466.911 555.597 466.911 554.657C466.911 553.737 466.491 553.277 465.651 553.277H456.141C454.361 553.277 453.011 552.877 452.091 552.077C451.171 551.257 450.711 550.087 450.711 548.567C450.711 547.027 451.171 545.847 452.091 545.027C453.031 544.187 454.381 543.767 456.141 543.767H469.821V547.217H456.351C455.491 547.217 455.061 547.637 455.061 548.477C455.061 548.897 455.181 549.227 455.421 549.467C455.661 549.707 455.971 549.827 456.351 549.827H466.431C467.991 549.827 469.181 550.237 470.001 551.057C470.841 551.857 471.261 553.027 471.261 554.567C471.261 556.127 470.841 557.347 470.001 558.227C469.161 559.087 467.971 559.517 466.431 559.517H450.951Z" fill="white"/>
<path d="M505.289 334.526C501.429 334.526 498.419 333.616 496.259 331.796C494.119 329.956 493.049 327.236 493.049 323.636C493.049 320.056 494.119 317.356 496.259 315.536C498.419 313.696 501.429 312.776 505.289 312.776H509.189C513.069 312.776 516.079 313.696 518.219 315.536C520.359 317.356 521.429 320.056 521.429 323.636C521.429 327.236 520.359 329.956 518.219 331.796C516.079 333.616 513.069 334.526 509.189 334.526H505.289ZM497.939 323.636C497.939 325.816 498.469 327.476 499.529 328.616L511.289 316.886C510.569 316.746 509.759 316.676 508.859 316.676H505.619C503.099 316.676 501.189 317.226 499.889 318.326C498.589 319.426 497.939 321.196 497.939 323.636ZM505.619 330.626H508.859C511.379 330.626 513.289 330.076 514.589 328.976C515.889 327.856 516.539 326.076 516.539 323.636C516.539 321.456 515.999 319.796 514.919 318.656L503.129 330.416C503.869 330.556 504.699 330.626 505.619 330.626ZM523.854 334.376V330.086H528.654V334.376H523.854ZM540.975 334.406C537.855 334.406 535.435 333.466 533.715 331.586C531.995 329.686 531.135 327.036 531.135 323.636C531.135 319.936 532.205 317.226 534.345 315.506C536.505 313.786 539.515 312.926 543.375 312.926H555.465V316.826H543.705C541.525 316.826 539.795 317.196 538.515 317.936C537.255 318.656 536.475 319.926 536.175 321.746H550.185C552.405 321.746 554.155 322.306 555.435 323.426C556.715 324.526 557.355 326.056 557.355 328.016C557.355 330.036 556.715 331.606 555.435 332.726C554.155 333.846 552.405 334.406 550.185 334.406H540.975ZM541.305 330.506H549.255C550.355 330.506 551.205 330.306 551.805 329.906C552.405 329.486 552.705 328.866 552.705 328.046C552.705 327.246 552.405 326.646 551.805 326.246C551.205 325.846 550.355 325.646 549.255 325.646H536.175C536.635 328.886 538.345 330.506 541.305 330.506ZM561.055 334.376V330.416H573.835C575.635 330.416 577.055 329.996 578.095 329.156C579.135 328.316 579.795 327.126 580.075 325.586H565.735C563.675 325.586 562.065 325.016 560.905 323.876C559.745 322.736 559.165 321.216 559.165 319.316C559.165 317.396 559.745 315.866 560.905 314.726C562.065 313.566 563.675 312.986 565.735 312.986H574.255C576.595 312.986 578.595 313.426 580.255 314.306C581.915 315.186 583.185 316.426 584.065 318.026C584.945 319.626 585.385 321.506 585.385 323.666C585.385 325.826 584.945 327.706 584.065 329.306C583.185 330.906 581.915 332.156 580.255 333.056C578.595 333.936 576.595 334.376 574.255 334.376H561.055ZM566.665 321.686H580.075C579.775 320.146 579.095 318.966 578.035 318.146C576.995 317.326 575.575 316.916 573.775 316.916H566.665C565.105 316.916 564.325 317.716 564.325 319.316C564.325 320.896 565.105 321.686 566.665 321.686ZM592.025 334.376L608.525 312.986H613.085L596.585 334.376H592.025ZM593.045 323.666C591.285 323.666 589.915 323.186 588.935 322.226C587.975 321.246 587.495 319.946 587.495 318.326C587.495 316.706 587.975 315.416 588.935 314.456C589.915 313.476 591.285 312.986 593.045 312.986H594.935C596.695 312.986 598.055 313.476 599.015 314.456C599.995 315.416 600.485 316.706 600.485 318.326C600.485 319.946 599.995 321.246 599.015 322.226C598.055 323.186 596.695 323.666 594.935 323.666H593.045ZM593.645 320.786H594.335C595.115 320.786 595.695 320.576 596.075 320.156C596.475 319.716 596.675 319.106 596.675 318.326C596.675 317.546 596.475 316.946 596.075 316.526C595.695 316.086 595.115 315.866 594.335 315.866H593.645C592.865 315.866 592.275 316.086 591.875 316.526C591.495 316.946 591.305 317.546 591.305 318.326C591.305 319.106 591.495 319.716 591.875 320.156C592.275 320.576 592.865 320.786 593.645 320.786ZM609.905 334.376C608.145 334.376 606.775 333.896 605.795 332.936C604.835 331.956 604.355 330.656 604.355 329.036C604.355 327.416 604.835 326.126 605.795 325.166C606.775 324.186 608.145 323.696 609.905 323.696H611.795C613.555 323.696 614.915 324.186 615.875 325.166C616.855 326.126 617.345 327.416 617.345 329.036C617.345 330.656 616.855 331.956 615.875 332.936C614.915 333.896 613.555 334.376 611.795 334.376H609.905ZM610.505 331.496H611.195C611.975 331.496 612.555 331.286 612.935 330.866C613.335 330.426 613.535 329.816 613.535 329.036C613.535 328.256 613.335 327.656 612.935 327.236C612.555 326.796 611.975 326.576 611.195 326.576H610.505C609.725 326.576 609.135 326.796 608.735 327.236C608.355 327.656 608.165 328.256 608.165 329.036C608.165 329.816 608.355 330.426 608.735 330.866C609.135 331.286 609.725 331.496 610.505 331.496ZM472.315 370.376L481.975 348.926H489.385L499.045 370.376H493.825L491.785 365.846H479.575L477.535 370.376H472.315ZM481.315 361.946H490.045L485.875 352.676H485.485L481.315 361.946ZM519.111 370.376H514.761V348.926H519.111V370.376ZM518.361 370.376H508.011C505.331 370.376 503.241 369.716 501.741 368.396C500.241 367.076 499.491 365.166 499.491 362.666C499.491 360.146 500.241 358.226 501.741 356.906C503.241 355.586 505.331 354.926 508.011 354.926H518.061V358.376H508.011C506.711 358.376 505.711 358.736 505.011 359.456C504.331 360.156 503.991 361.226 503.991 362.666C503.991 364.086 504.331 365.156 505.011 365.876C505.711 366.576 506.711 366.926 508.011 366.926H518.361V370.376ZM527.575 370.376L521.065 354.926H525.625L530.665 366.896H532.165L537.205 354.926H541.765L535.255 370.376H527.575ZM543.714 370.376V354.926H548.064V370.376H543.714ZM543.684 352.376V348.986H548.094V352.376H543.684ZM550.85 370.526V367.076H565.55C566.39 367.076 566.81 366.606 566.81 365.666C566.81 364.746 566.39 364.286 565.55 364.286H556.04C554.26 364.286 552.91 363.886 551.99 363.086C551.07 362.266 550.61 361.096 550.61 359.576C550.61 358.036 551.07 356.856 551.99 356.036C552.93 355.196 554.28 354.776 556.04 354.776H569.72V358.226H556.25C555.39 358.226 554.96 358.646 554.96 359.486C554.96 359.906 555.08 360.236 555.32 360.476C555.56 360.716 555.87 360.836 556.25 360.836H566.33C567.89 360.836 569.08 361.246 569.9 362.066C570.74 362.866 571.16 364.036 571.16 365.576C571.16 367.136 570.74 368.356 569.9 369.236C569.06 370.096 567.87 370.526 566.33 370.526H550.85ZM581.634 370.526C578.954 370.526 576.864 369.866 575.364 368.546C573.864 367.206 573.114 365.246 573.114 362.666C573.114 360.066 573.864 358.106 575.364 356.786C576.864 355.446 578.954 354.776 581.634 354.776H587.184C589.864 354.776 591.954 355.446 593.454 356.786C594.954 358.106 595.704 360.066 595.704 362.666C595.704 365.246 594.954 367.206 593.454 368.546C591.954 369.866 589.864 370.526 587.184 370.526H581.634ZM581.634 367.076H587.184C588.484 367.076 589.474 366.716 590.154 365.996C590.854 365.276 591.204 364.166 591.204 362.666C591.204 361.146 590.854 360.026 590.154 359.306C589.474 358.586 588.484 358.226 587.184 358.226H581.634C580.334 358.226 579.334 358.586 578.634 359.306C577.954 360.026 577.614 361.146 577.614 362.666C577.614 364.166 577.954 365.276 578.634 365.996C579.334 366.716 580.334 367.076 581.634 367.076ZM598.411 370.376V354.926H610.231C611.971 354.926 613.251 355.366 614.071 356.246C614.891 357.106 615.301 358.246 615.301 359.666V362.876H610.891V360.206C610.891 359.006 610.291 358.406 609.091 358.406H602.821V370.376H598.411ZM617.178 370.526V367.076H631.878C632.718 367.076 633.138 366.606 633.138 365.666C633.138 364.746 632.718 364.286 631.878 364.286H622.368C620.588 364.286 619.238 363.886 618.318 363.086C617.398 362.266 616.938 361.096 616.938 359.576C616.938 358.036 617.398 356.856 618.318 356.036C619.258 355.196 620.608 354.776 622.368 354.776H636.048V358.226H622.578C621.718 358.226 621.288 358.646 621.288 359.486C621.288 359.906 621.408 360.236 621.648 360.476C621.888 360.716 622.198 360.836 622.578 360.836H632.658C634.218 360.836 635.408 361.246 636.228 362.066C637.068 362.866 637.488 364.036 637.488 365.576C637.488 367.136 637.068 368.356 636.228 369.236C635.388 370.096 634.198 370.526 632.658 370.526H617.178Z" fill="white"/>
<path d="M341.178 827.94V821.58C341.178 819.58 341.738 818.03 342.858 816.93C343.978 815.83 345.608 815.28 347.748 815.28H357.618C359.518 815.28 360.468 814.47 360.468 812.85C360.468 811.23 359.518 810.42 357.618 810.42H341.658V806.52H358.548C360.628 806.52 362.238 807.08 363.378 808.2C364.538 809.32 365.118 810.87 365.118 812.85C365.118 814.83 364.538 816.38 363.378 817.5C362.238 818.62 360.628 819.18 358.548 819.18H348.408C347.548 819.18 346.898 819.4 346.458 819.84C346.038 820.26 345.828 820.86 345.828 821.64V824.07H364.548V827.94H341.178ZM372.69 827.94V810.45H366.33V806.55H377.34V827.94H372.69ZM381.248 827.94V823.65H386.048V827.94H381.248ZM390.015 827.94V824.04H405.945C407.845 824.04 408.795 823.23 408.795 821.61C408.795 819.99 407.845 819.18 405.945 819.18H390.015V806.52H412.575V810.39H394.665V815.28H406.875C408.955 815.28 410.565 815.84 411.705 816.96C412.865 818.08 413.445 819.63 413.445 821.61C413.445 823.59 412.865 825.14 411.705 826.26C410.565 827.38 408.955 827.94 406.875 827.94H390.015ZM421.001 827.94V810.45H414.641V806.55H425.651V827.94H421.001ZM433.189 827.94L449.689 806.55H454.249L437.749 827.94H433.189ZM434.209 817.23C432.449 817.23 431.079 816.75 430.099 815.79C429.139 814.81 428.659 813.51 428.659 811.89C428.659 810.27 429.139 808.98 430.099 808.02C431.079 807.04 432.449 806.55 434.209 806.55H436.099C437.859 806.55 439.219 807.04 440.179 808.02C441.159 808.98 441.649 810.27 441.649 811.89C441.649 813.51 441.159 814.81 440.179 815.79C439.219 816.75 437.859 817.23 436.099 817.23H434.209ZM434.809 814.35H435.499C436.279 814.35 436.859 814.14 437.239 813.72C437.639 813.28 437.839 812.67 437.839 811.89C437.839 811.11 437.639 810.51 437.239 810.09C436.859 809.65 436.279 809.43 435.499 809.43H434.809C434.029 809.43 433.439 809.65 433.039 810.09C432.659 810.51 432.469 811.11 432.469 811.89C432.469 812.67 432.659 813.28 433.039 813.72C433.439 814.14 434.029 814.35 434.809 814.35ZM451.069 827.94C449.309 827.94 447.939 827.46 446.959 826.5C445.999 825.52 445.519 824.22 445.519 822.6C445.519 820.98 445.999 819.69 446.959 818.73C447.939 817.75 449.309 817.26 451.069 817.26H452.959C454.719 817.26 456.079 817.75 457.039 818.73C458.019 819.69 458.509 820.98 458.509 822.6C458.509 824.22 458.019 825.52 457.039 826.5C456.079 827.46 454.719 827.94 452.959 827.94H451.069ZM451.669 825.06H452.359C453.139 825.06 453.719 824.85 454.099 824.43C454.499 823.99 454.699 823.38 454.699 822.6C454.699 821.82 454.499 821.22 454.099 820.8C453.719 820.36 453.139 820.14 452.359 820.14H451.669C450.889 820.14 450.299 820.36 449.899 820.8C449.519 821.22 449.329 821.82 449.329 822.6C449.329 823.38 449.519 823.99 449.899 824.43C450.299 824.85 450.889 825.06 451.669 825.06ZM349.246 853.35V842.49H375.646V853.35H370.786V846.39H364.246V863.94H359.446V846.39H354.106V853.35H349.246ZM386.557 864.09C383.877 864.09 381.787 863.43 380.287 862.11C378.787 860.77 378.037 858.81 378.037 856.23C378.037 853.63 378.787 851.67 380.287 850.35C381.787 849.01 383.877 848.34 386.557 848.34H394.057C395.817 848.34 397.157 848.76 398.077 849.6C399.017 850.42 399.487 851.6 399.487 853.14C399.487 856.28 397.677 857.85 394.057 857.85H382.717C383.137 859.71 384.417 860.64 386.557 860.64H398.707V864.09H386.557ZM386.557 851.79C384.497 851.79 383.227 852.66 382.747 854.4H393.847C394.247 854.4 394.557 854.28 394.777 854.04C395.017 853.8 395.137 853.47 395.137 853.05C395.137 852.21 394.707 851.79 393.847 851.79H386.557ZM406.302 863.94C404.682 863.94 403.442 863.53 402.582 862.71C401.722 861.89 401.292 860.72 401.292 859.2C401.292 857.7 401.722 856.54 402.582 855.72C403.442 854.9 404.682 854.49 406.302 854.49H417.822V853.77C417.822 852.55 417.222 851.94 416.022 851.94H403.302V848.49H417.162C418.982 848.49 420.272 848.91 421.032 849.75C421.792 850.57 422.172 851.73 422.172 853.23V863.94H406.302ZM407.082 860.49H417.822V857.94H407.082C406.702 857.94 406.402 858.06 406.182 858.3C405.982 858.52 405.882 858.82 405.882 859.2C405.882 859.58 405.982 859.89 406.182 860.13C406.402 860.37 406.702 860.49 407.082 860.49ZM425.483 863.94V848.49H445.493C447.253 848.49 448.543 848.93 449.363 849.81C450.183 850.67 450.593 851.81 450.593 853.23V863.94H446.243V853.77C446.243 852.55 445.623 851.94 444.383 851.94H440.213V863.94H435.863V851.94H429.833V863.94H425.483Z" fill="white"/>
<path d="M1367.52 635.106C1367.52 640.481 1371.88 644.838 1377.25 644.838C1382.63 644.838 1386.98 640.481 1386.98 635.106C1386.98 629.732 1382.63 625.375 1377.25 625.375C1371.88 625.375 1367.52 629.732 1367.52 635.106ZM1377.25 633.282L1244.97 633.282L1244.97 636.931L1377.25 636.931L1377.25 633.282Z" fill="white"/>
<path d="M1504.46 633.03C1501.34 633.03 1498.92 632.09 1497.2 630.21C1495.48 628.31 1494.62 625.66 1494.62 622.26C1494.62 618.56 1495.69 615.85 1497.83 614.13C1499.99 612.41 1503 611.55 1506.86 611.55H1518.95V615.45H1507.19C1505.01 615.45 1503.28 615.82 1502 616.56C1500.74 617.28 1499.96 618.55 1499.66 620.37H1513.67C1515.89 620.37 1517.64 620.93 1518.92 622.05C1520.2 623.15 1520.84 624.68 1520.84 626.64C1520.84 628.66 1520.2 630.23 1518.92 631.35C1517.64 632.47 1515.89 633.03 1513.67 633.03H1504.46ZM1504.79 629.13H1512.74C1513.84 629.13 1514.69 628.93 1515.29 628.53C1515.89 628.11 1516.19 627.49 1516.19 626.67C1516.19 625.87 1515.89 625.27 1515.29 624.87C1514.69 624.47 1513.84 624.27 1512.74 624.27H1499.66C1500.12 627.51 1501.83 629.13 1504.79 629.13ZM1535.19 633.15C1531.33 633.15 1528.32 632.24 1526.16 630.42C1524.02 628.58 1522.95 625.86 1522.95 622.26C1522.95 618.68 1524.02 615.98 1526.16 614.16C1528.32 612.32 1531.33 611.4 1535.19 611.4H1539.09C1542.97 611.4 1545.98 612.32 1548.12 614.16C1550.26 615.98 1551.33 618.68 1551.33 622.26C1551.33 625.86 1550.26 628.58 1548.12 630.42C1545.98 632.24 1542.97 633.15 1539.09 633.15H1535.19ZM1527.84 622.26C1527.84 624.44 1528.37 626.1 1529.43 627.24L1541.19 615.51C1540.47 615.37 1539.66 615.3 1538.76 615.3H1535.52C1533 615.3 1531.09 615.85 1529.79 616.95C1528.49 618.05 1527.84 619.82 1527.84 622.26ZM1535.52 629.25H1538.76C1541.28 629.25 1543.19 628.7 1544.49 627.6C1545.79 626.48 1546.44 624.7 1546.44 622.26C1546.44 620.08 1545.9 618.42 1544.82 617.28L1533.03 629.04C1533.77 629.18 1534.6 629.25 1535.52 629.25ZM1557.97 633L1574.47 611.61H1579.03L1562.53 633H1557.97ZM1558.99 622.29C1557.23 622.29 1555.86 621.81 1554.88 620.85C1553.92 619.87 1553.44 618.57 1553.44 616.95C1553.44 615.33 1553.92 614.04 1554.88 613.08C1555.86 612.1 1557.23 611.61 1558.99 611.61H1560.88C1562.64 611.61 1564 612.1 1564.96 613.08C1565.94 614.04 1566.43 615.33 1566.43 616.95C1566.43 618.57 1565.94 619.87 1564.96 620.85C1564 621.81 1562.64 622.29 1560.88 622.29H1558.99ZM1559.59 619.41H1560.28C1561.06 619.41 1561.64 619.2 1562.02 618.78C1562.42 618.34 1562.62 617.73 1562.62 616.95C1562.62 616.17 1562.42 615.57 1562.02 615.15C1561.64 614.71 1561.06 614.49 1560.28 614.49H1559.59C1558.81 614.49 1558.22 614.71 1557.82 615.15C1557.44 615.57 1557.25 616.17 1557.25 616.95C1557.25 617.73 1557.44 618.34 1557.82 618.78C1558.22 619.2 1558.81 619.41 1559.59 619.41ZM1575.85 633C1574.09 633 1572.72 632.52 1571.74 631.56C1570.78 630.58 1570.3 629.28 1570.3 627.66C1570.3 626.04 1570.78 624.75 1571.74 623.79C1572.72 622.81 1574.09 622.32 1575.85 622.32H1577.74C1579.5 622.32 1580.86 622.81 1581.82 623.79C1582.8 624.75 1583.29 626.04 1583.29 627.66C1583.29 629.28 1582.8 630.58 1581.82 631.56C1580.86 632.52 1579.5 633 1577.74 633H1575.85ZM1576.45 630.12H1577.14C1577.92 630.12 1578.5 629.91 1578.88 629.49C1579.28 629.05 1579.48 628.44 1579.48 627.66C1579.48 626.88 1579.28 626.28 1578.88 625.86C1578.5 625.42 1577.92 625.2 1577.14 625.2H1576.45C1575.67 625.2 1575.08 625.42 1574.68 625.86C1574.3 626.28 1574.11 626.88 1574.11 627.66C1574.11 628.44 1574.3 629.05 1574.68 629.49C1575.08 629.91 1575.67 630.12 1576.45 630.12ZM1454.08 669.15C1450.12 669.15 1447.09 668.24 1444.99 666.42C1442.89 664.58 1441.84 661.86 1441.84 658.26C1441.84 654.68 1442.89 651.97 1444.99 650.13C1447.09 648.29 1450.12 647.38 1454.08 647.4L1464.88 647.46V651.3H1454.41C1451.81 651.3 1449.88 651.85 1448.62 652.95C1447.36 654.05 1446.73 655.82 1446.73 658.26C1446.73 660.7 1447.36 662.48 1448.62 663.6C1449.88 664.7 1451.81 665.25 1454.41 665.25H1465.18V669.15H1454.08ZM1475.64 669.15C1472.96 669.15 1470.87 668.49 1469.37 667.17C1467.87 665.83 1467.12 663.87 1467.12 661.29C1467.12 658.69 1467.87 656.73 1469.37 655.41C1470.87 654.07 1472.96 653.4 1475.64 653.4H1481.19C1483.87 653.4 1485.96 654.07 1487.46 655.41C1488.96 656.73 1489.71 658.69 1489.71 661.29C1489.71 663.87 1488.96 665.83 1487.46 667.17C1485.96 668.49 1483.87 669.15 1481.19 669.15H1475.64ZM1475.64 665.7H1481.19C1482.49 665.7 1483.48 665.34 1484.16 664.62C1484.86 663.9 1485.21 662.79 1485.21 661.29C1485.21 659.77 1484.86 658.65 1484.16 657.93C1483.48 657.21 1482.49 656.85 1481.19 656.85H1475.64C1474.34 656.85 1473.34 657.21 1472.64 657.93C1471.96 658.65 1471.62 659.77 1471.62 661.29C1471.62 662.79 1471.96 663.9 1472.64 664.62C1473.34 665.34 1474.34 665.7 1475.64 665.7ZM1492.42 669V653.55H1512.43C1514.19 653.55 1515.48 653.99 1516.3 654.87C1517.12 655.73 1517.53 656.87 1517.53 658.29V669H1513.18V658.83C1513.18 657.61 1512.56 657 1511.32 657H1507.15V669H1502.8V657H1496.77V669H1492.42ZM1520.69 669V653.55H1540.7C1542.46 653.55 1543.75 653.99 1544.57 654.87C1545.39 655.73 1545.8 656.87 1545.8 658.29V669H1541.45V658.83C1541.45 657.61 1540.83 657 1539.59 657H1535.42V669H1531.07V657H1525.04V669H1520.69ZM1553.89 669C1552.13 669 1550.84 668.56 1550.02 667.68C1549.22 666.8 1548.82 665.66 1548.82 664.26V653.55H1553.17V663.75C1553.17 664.95 1553.77 665.55 1554.97 665.55H1561.21C1562.41 665.55 1563.01 664.95 1563.01 663.75V653.55H1567.36V664.26C1567.36 665.66 1566.95 666.8 1566.13 667.68C1565.33 668.56 1564.05 669 1562.29 669H1553.89ZM1570.5 669V653.55H1583.97C1585.73 653.55 1587.01 653.99 1587.81 654.87C1588.63 655.73 1589.04 656.87 1589.04 658.29V669H1584.69V658.8C1584.69 657.6 1584.09 657 1582.89 657H1574.85V669H1570.5ZM1592.18 669V653.55H1596.53V669H1592.18ZM1592.15 651V647.61H1596.56V651H1592.15ZM1607.86 669C1606.12 669 1604.84 668.57 1604.02 667.71C1603.2 666.83 1602.79 665.68 1602.79 664.26V657H1598.32V653.55H1602.79V648.81H1607.14V653.55H1613.56V657H1607.14V663.72C1607.14 664.94 1607.74 665.55 1608.94 665.55H1614.4V669H1607.86ZM1620.12 675.75V672.3H1629.18C1630.38 672.3 1630.98 671.69 1630.98 670.47V669H1621.71C1619.95 669 1618.66 668.56 1617.84 667.68C1617.04 666.8 1616.64 665.66 1616.64 664.26V653.55H1620.99V663.75C1620.99 664.95 1621.59 665.55 1622.79 665.55H1630.83V653.55H1635.33V671.01C1635.33 672.43 1634.92 673.57 1634.1 674.43C1633.28 675.31 1632 675.75 1630.26 675.75H1620.12Z" fill="white"/>
<path d="M760.184 140.115V123.825H799.784V140.115H792.494V129.675H782.684V156H775.484V129.675H767.474V140.115H760.184ZM821.192 156.225C815.462 156.225 811.022 154.86 807.872 152.13C804.722 149.37 803.147 145.29 803.147 139.89C803.147 134.52 804.722 130.47 807.872 127.74C811.022 124.98 815.567 123.6 821.507 123.6H829.607C835.547 123.6 840.092 124.98 843.242 127.74C846.392 130.47 847.967 134.52 847.967 139.89C847.967 145.29 846.392 149.37 843.242 152.13C840.092 154.86 835.622 156.225 829.832 156.225H821.192ZM822.002 129.45C818.672 129.45 816.077 130.05 814.217 131.25C812.357 132.45 811.187 134.355 810.707 136.965H840.407C839.927 134.355 838.757 132.45 836.897 131.25C835.037 130.05 832.442 129.45 829.112 129.45H822.002ZM822.137 150.375H829.112C832.472 150.375 835.067 149.775 836.897 148.575C838.757 147.375 839.927 145.455 840.407 142.815H810.707C811.187 145.455 812.357 147.375 814.217 148.575C816.077 149.775 818.717 150.375 822.137 150.375ZM852.452 156V123.915H859.652V137.01H870.362L880.937 123.915H889.892L876.662 139.935L889.892 156H880.937L870.317 142.86H859.652V156H852.452ZM893.497 156V123.825H928.777V129.675H900.697V136.785H926.167V142.635H900.697V150.15H928.777V156H893.497ZM933.707 156V123.825H940.997L963.767 146.955V123.825H970.967V156H963.677L940.907 132.825V156H933.707ZM993.501 156.225C987.771 156.225 983.331 154.86 980.181 152.13C977.031 149.37 975.456 145.29 975.456 139.89C975.456 134.52 977.031 130.47 980.181 127.74C983.331 124.98 987.876 123.6 993.816 123.6H1001.92C1007.86 123.6 1012.4 124.98 1015.55 127.74C1018.7 130.47 1020.28 134.52 1020.28 139.89C1020.28 145.29 1018.7 149.37 1015.55 152.13C1012.4 154.86 1007.93 156.225 1002.14 156.225H993.501ZM994.311 129.45C990.981 129.45 988.386 130.05 986.526 131.25C984.666 132.45 983.496 134.355 983.016 136.965H1012.72C1012.24 134.355 1011.07 132.45 1009.21 131.25C1007.35 130.05 1004.75 129.45 1001.42 129.45H994.311ZM994.446 150.375H1001.42C1004.78 150.375 1007.38 149.775 1009.21 148.575C1011.07 147.375 1012.24 145.455 1012.72 142.815H983.016C983.496 145.455 984.666 147.375 986.526 148.575C988.386 149.775 991.026 150.375 994.446 150.375ZM1024.76 156V123.825H1030.79L1045.69 134.265H1045.91L1060.81 123.825H1066.84V156H1059.64V132.825L1049.42 139.665V156H1042.22V139.665L1031.96 132.825V156H1024.76ZM1073.15 156V123.825H1080.35V156H1073.15ZM1103.2 156.225C1097.26 156.225 1092.71 154.86 1089.56 152.13C1086.41 149.37 1084.84 145.29 1084.84 139.89C1084.84 134.52 1086.41 130.455 1089.56 127.695C1092.71 124.935 1097.26 123.57 1103.2 123.6L1119.4 123.69V129.45H1103.69C1099.79 129.45 1096.9 130.275 1095.01 131.925C1093.12 133.575 1092.17 136.23 1092.17 139.89C1092.17 143.55 1093.12 146.22 1095.01 147.9C1096.9 149.55 1099.79 150.375 1103.69 150.375H1119.85V156.225H1103.2ZM1123.31 156.225V150.375L1149.18 150.42C1150.5 150.42 1151.51 150.12 1152.2 149.52C1152.92 148.89 1153.28 147.885 1153.28 146.505C1153.28 145.125 1152.92 144.135 1152.2 143.535C1151.51 142.905 1150.5 142.59 1149.18 142.59H1133.07C1129.74 142.59 1127.15 141.795 1125.29 140.205C1123.46 138.585 1122.54 136.215 1122.54 133.095C1122.54 129.975 1123.46 127.62 1125.29 126.03C1127.15 124.41 1129.74 123.6 1133.07 123.6H1158.36V129.45L1133.84 129.405C1132.55 129.405 1131.54 129.705 1130.82 130.305C1130.1 130.875 1129.74 131.805 1129.74 133.095C1129.74 134.385 1130.1 135.33 1130.82 135.93C1131.54 136.5 1132.55 136.785 1133.84 136.785H1149.95C1153.28 136.785 1155.86 137.61 1157.69 139.26C1159.55 140.88 1160.48 143.295 1160.48 146.505C1160.48 149.685 1159.55 152.1 1157.69 153.75C1155.86 155.4 1153.28 156.225 1149.95 156.225H1123.31Z" fill="white"/>
</g>
<defs>
<clipPath id="clip0_2_45">
<rect width="1920" height="1080" fill="white"/>
</clipPath>
</defs>
</svg>
